<?xml version="1.0" encoding="UTF-8" standalone="no"?>
<svg xmlns="http://www.w3.org/2000/svg" viewBox="0 0 1066.6667 1066.6667" height="1066.6667" width="1066.6667" xml:space="preserve" id="svg2"> <metadata id="metadata8"></metadata> <defs id="defs6"> <clipPath id="clipPath18" clipPathUnits="userSpaceOnUse">
    <path id="path16" d="M 0,800 H 800 V 0 H 0 Z"></path>
</clipPath>
</defs>
    <g transform="matrix(1.3333333,0,0,-1.3333333,0,1066.6667)" id="g10">
        <g id="g12">
            <g clip-path="url(#clipPath18)" id="g14">
                <g transform="translate(324.2113,736.6938)" id="g20">
                    <path id="path22" style="fill:#0077d1;fill-opacity:1;fill-rule:evenodd;stroke:none" d="m 0,0 c 47.501,33.573 107.126,51.181 166.109,48.352 52.258,-2.227 103.518,-20.193 145.228,-50.45 68.938,-49.247 110.867,-130.523 111.849,-212.807 -3.539,8.308 -7.331,16.519 -11.819,24.388 -4.878,8.991 -11.38,17.234 -14.428,27.055 -15.241,44.971 -48.499,83.096 -89.362,108.898 -94.459,59.961 -227.782,57.23 -318.652,-8.015 -39.05,-27.867 -69.514,-67.879 -81.335,-113.517 -2.607,-9.072 -2.929,-18.761 -7.145,-27.395 -5.979,-12.6 -11.584,-25.445 -15.021,-38.939 -2.135,36.516 1.913,73.456 13.868,108.248 C -82.741,-80.886 -47.28,-32.972 0,0"></path> </g> <g transform="translate(219.2865,764.3973)" id="g24"> <path id="path26" style="fill:#0077d1;fill-opacity:1;fill-rule:evenodd;stroke:none" d="m 0,0 c 30.737,11.186 63.707,16.681 96.559,15.999 9.365,-0.277 18.798,-0.326 27.942,-2.538 -31.65,-14.925 -60.608,-35.23 -84.196,-60.448 -3.845,-4.438 -10.144,-4.894 -15.58,-6.258 -55.663,-12.276 -107.854,-41.769 -143.044,-85.341 -26.265,-32.224 -42.149,-72.545 -42.505,-113.615 -0.745,-39.573 12.921,-78.885 36.747,-111.029 27.875,-38.012 68.821,-66.301 113.917,-82.657 62.335,-22.728 132.951,-23.541 195.929,-2.552 43.86,14.535 84.112,40.142 113.256,74.999 21.473,25.575 36.426,56.27 42.217,88.707 5.86,-0.927 11.498,-2.764 17.003,-4.862 -6.741,-52.807 -29.906,-103.615 -65.943,-144.049 -36.713,-41.426 -87.312,-71.521 -142.586,-83.764 -47.721,-10.584 -98.607,-7.868 -144.753,7.983 -51.802,17.494 -97.407,51.036 -129.141,94.022 -36.341,48.402 -55.07,108.509 -53.529,168.097 1.185,56.026 20.44,111.662 54.918,156.925 C -92.088,-49.75 -49.057,-17.559 0,0"></path> </g> <g transform="translate(366.8523,649.7921)" id="g28"> <path id="path30" style="fill:#0077d1;fill-opacity:1;fill-rule:evenodd;stroke:none" d="m 0,0 c 43.029,20.908 92.224,29.931 140.249,25.542 55.85,-4.699 109.531,-27.737 151.239,-63.57 58.068,-49.507 92.783,-123.044 94.071,-197.524 -5.47,10.502 -10.28,21.348 -16.697,31.345 -4.116,6.277 -7.723,12.845 -9.942,19.967 -16.527,47.88 -53.546,87.682 -98.286,113.321 C 205.208,-39.005 138.03,-27.51 74.307,-36.517 19.88,-44.11 -32.852,-67 -72.344,-104.136 c -31.479,-29.086 -53.968,-67.634 -60.861,-109.239 -1.253,-7.999 -5.47,-15.089 -8.653,-22.454 -3.742,-8.405 -6.52,-17.169 -10.093,-25.623 -3.945,55.132 9.755,111.355 38.881,159.04 C -86.584,-58.872 -47.078,-22.551 0,0"></path> </g> <g transform="translate(181.9976,635.826)" id="g32"> <path id="path34" style="fill:#0077d1;fill-opacity:1;fill-rule:evenodd;stroke:none" d="M 0,0 C 9.839,5.674 19.881,11.153 30.77,14.763 24.995,0.91 18.696,-12.763 14.733,-27.249 c -2.997,-8.488 -3.708,-17.609 -6.942,-25.998 -3.778,-3.04 -8.367,-4.893 -12.6,-7.267 -41.624,-22.437 -76.882,-56.823 -96.576,-98.835 -3.115,10.601 -4.521,21.591 -4.894,32.566 0.034,7.787 0.406,15.965 4.336,22.973 C -78.524,-61.246 -43.164,-24.632 0,0"></path> </g> <g transform="translate(434.9953,562.0937)" id="g36"> <path id="path38" style="fill:#0077d1;fill-opacity:1;fill-rule:evenodd;stroke:none" d="m 0,0 c 44.317,9.023 91.055,6.617 134.102,-6.926 54.579,-17.169 102.824,-51.896 135.83,-96.965 44.317,-59.489 61.809,-136.327 48.669,-208.254 -9.788,-55.327 -37.408,-107.728 -78.846,-147.382 -38.779,-37.281 -89.599,-63.099 -143.856,-71.537 -24.793,-3.902 -50.227,-4.553 -75.137,-1.269 7.095,4.894 15.207,8.146 22.607,12.535 22.76,13.169 43.555,29.461 61.352,48.418 2.591,3.024 6.469,4.389 10.381,5.105 51.345,10.519 100.081,35.216 135.813,72.447 22.268,22.941 39.134,50.889 47.923,81.146 9.704,32.729 9.281,68.058 -0.795,100.639 -12.65,41.558 -40.794,77.83 -76.306,104.104 -88.955,65.733 -220.179,70.594 -315.265,13.982 -38.271,-22.665 -70.496,-55.637 -88.684,-95.356 -6.621,-14.144 -11.058,-29.134 -14.039,-44.353 -5.808,1.04 -11.447,2.796 -16.95,4.845 6.553,52.856 29.905,103.631 65.941,144.082 C -109.53,-42.141 -57.119,-11.43 0,0"></path> </g> <g transform="translate(97.6483,443.6674)" id="g40"> <path id="path42" style="fill:#0077d1;fill-opacity:1;fill-rule:evenodd;stroke:none" d="M 0,0 C 22.388,33.071 52.225,61.717 87.55,81.975 88.228,63.636 90.7,45.458 94.069,27.413 63.199,12.991 36.206,-8.6 14.665,-34.175 8.011,-26.029 2.49,-17.039 -1.998,-7.641 -3.792,-4.878 -1.304,-2.325 0,0"></path> </g> <g transform="translate(387.6477,458.9995)" id="g44"> <path id="path46" style="fill:#0077d1;fill-opacity:1;fill-rule:evenodd;stroke:none" d="m 0,0 c 18.594,3.837 38.83,-1.723 52.495,-14.438 19.408,-17.315 23.641,-47.652 9.704,-69.261 -13.176,-22.111 -43.233,-32.907 -68.313,-24.55 -26.637,7.707 -44.452,35.639 -39.609,61.945 C -42.437,-23.689 -23.268,-4.472 0,0"></path> </g> <g transform="translate(569.5542,383.8698)" id="g48"> <path id="path50" style="fill:#0077d1;fill-opacity:1;fill-rule:evenodd;stroke:none" d="M 0,0 C 5.995,12.616 11.668,25.477 15.072,39.003 17.273,1.154 12.82,-37.152 -0.135,-73.049 c -18.356,-51.783 -53.224,-98.267 -99.387,-130.458 -38.475,-27.038 -84.655,-43.914 -132.206,-47.719 -54.46,-4.585 -110.241,8.13 -156.929,35.411 -52.919,30.533 -93.832,79.065 -115.559,134.409 -11.414,29.655 -18.255,61.131 -18.509,92.786 5.335,-12.746 11.769,-25.054 19.271,-36.743 6.114,-9.154 8.298,-19.999 12.938,-29.803 18.661,-42.174 53.021,-76.934 93.9,-100.086 56.594,-32.256 125.33,-43.232 190.069,-33.037 51.159,7.933 100.421,29.542 138.353,63.668 29.585,26.436 51.904,60.806 61.405,98.672 C -4.453,-17.315 -4.013,-8.162 0,0"></path> </g> <g transform="translate(669.0945,379.4954)" id="g52"> <path id="path54" style="fill:#0077d1;fill-opacity:1;fill-rule:evenodd;stroke:none" d="m 0,0 c 6.688,5.935 11.904,13.169 18.661,19.022 5.622,-8.616 11.685,-17.054 15.867,-26.42 1.88,-3.121 -1.201,-5.934 -2.608,-8.583 -22.403,-32.567 -51.819,-61.149 -87.007,-80.936 -0.746,18.031 -2.71,36.029 -6.605,53.703 C -39.474,-31.184 -17.882,-17.64 0,0"></path> </g> <g transform="translate(704.4702,306.4461)" id="g56"> <path id="path58" style="fill:#0077d1;fill-opacity:1;fill-rule:evenodd;stroke:none" d="m 0,0 c 5.317,7.756 9.262,16.259 14.359,24.128 3.709,-12.812 5.386,-26.257 4.522,-39.556 -0.271,-5.577 -1.863,-11.057 -4.674,-15.967 -28.822,-51.702 -75.424,-94.932 -132.07,-117.565 6.011,14.779 12.735,29.331 16.714,44.777 2.473,7.625 3.201,15.738 6.198,23.217 4.454,3.446 9.805,5.577 14.665,8.454 C -48.128,-54.839 -20.085,-29.98 0,0"></path> </g> <g transform="translate(576.7183,279.5069)" id="g60"> <path id="path62" style="fill:#0077d1;fill-opacity:1;fill-rule:evenodd;stroke:none" d="m 0,0 c 5.25,10.567 9.178,21.672 12.87,32.808 5.35,-73.828 -20.626,-149.657 -72.598,-204.562 -46.095,-49.703 -113.035,-81.39 -182.414,-84.609 -42.59,-2.244 -85.621,5.983 -124.197,23.429 -52.716,23.622 -96.507,64.432 -124.026,113.532 -21.371,38.24 -33.682,81.389 -34.342,124.832 4.216,-7.95 7.789,-16.227 12.328,-24.03 4.538,-8.178 10.431,-15.754 13.412,-24.68 10.363,-30.55 28.551,-58.628 52.496,-81.08 35.799,-34.518 83.146,-56.938 132.628,-66.579 56.832,-11.137 117.219,-5.723 170.562,16.306 39.644,16.275 75.392,42.078 100.945,75.586 17.747,23.559 30.685,50.727 35.799,79.472 C -5.505,-12.731 -3.167,-6.179 0,0"></path> </g> </g> </g> </g> </svg>